HIERARCHY
ROOT hip
{
  OFFSET 0 0 0
  CHANNELS 6 Xposition Yposition Zposition Zrotation Yrotation Xrotation
  JOINT abdomen
  {
    OFFSET 0 20.6881 -0.73152
    CHANNELS 3 Zrotation Xrotation Yrotation
    JOINT chest
    {
      OFFSET 0 11.7043 -0.48768
      CHANNELS 3 Zrotation Xrotation Yrotation
      JOINT neck
      {
        OFFSET 0 22.1894 -2.19456
        CHANNELS 3 Zrotation Xrotation Yrotation
        JOINT head
        {
          OFFSET -0.24384 7.07133 1.2192
          CHANNELS 3 Zrotation Xrotation Yrotation
          JOINT leftEye
          {
            OFFSET 4.14528 8.04674 8.04672
            CHANNELS 3 Zrotation Xrotation Yrotation
            End Site
            {
              OFFSET 1 0 0
            }
          }
          JOINT rightEye
          {
            OFFSET -3.6576 8.04674 8.04672
            CHANNELS 3 Zrotation Xrotation Yrotation
            End Site
            {
              OFFSET 1 0 0
            }
          }
        }
      }
      JOINT rCollar
      {
        OFFSET -2.68224 19.2634 -4.8768
        CHANNELS 3 Zrotation Xrotation Yrotation
        JOINT rShldr
        {
          OFFSET -8.77824 -1.95073 1.46304
          CHANNELS 3 Zrotation Xrotation Yrotation
          JOINT rForeArm
          {
            OFFSET -28.1742 -1.7115 0.48768
            CHANNELS 3 Zrotation Xrotation Yrotation
            JOINT rHand
            {
              OFFSET -22.5879 0.773209 7.07136
              CHANNELS 3 Zrotation Xrotation Yrotation
              JOINT rThumb1
              {
                OFFSET -1.2192 -0.487915 3.41376
                CHANNELS 3 Zrotation Xrotation Yrotation
                JOINT rThumb2
                {
                  OFFSET -3.37035 -0.52449 3.41376
                  CHANNELS 3 Zrotation Xrotation Yrotation
                  End Site
                  {
                    OFFSET -1.78271 -1.18214 1.43049
                  }
                }
              }
              JOINT rIndex1
              {
                OFFSET -7.75947 0.938293 5.60832
                CHANNELS 3 Zrotation Xrotation Yrotation
                JOINT rIndex2
                {
                  OFFSET -2.54057 -0.884171 1.56538
                  CHANNELS 3 Zrotation Xrotation Yrotation
                  End Site
                  {
                    OFFSET -1.62519 -0.234802 1.16502
                  }
                }
              }
              JOINT rMid1
              {
                OFFSET -8.24714 1.18213 3.41376
                CHANNELS 3 Zrotation Xrotation Yrotation
                JOINT rMid2
                {
                  OFFSET -3.10165 -0.590103 1.0647
                  CHANNELS 3 Zrotation Xrotation Yrotation
                  End Site
                  {
                    OFFSET -2.48547 -0.328903 0.83742
                  }
                }
              }
              JOINT rRing1
              {
                OFFSET -8.82822 0.546677 1.51678
                CHANNELS 3 Zrotation Xrotation Yrotation
                JOINT rRing2
                {
                  OFFSET -2.60934 -0.819778 -0.0198488
                  CHANNELS 3 Zrotation Xrotation Yrotation
                  End Site
                  {
                    OFFSET -2.33842 -0.294052 0.168128
                  }
                }
              }
              JOINT rPinky1
              {
                OFFSET -8.27202 -0.0477905 -0.4584
                CHANNELS 3 Zrotation Xrotation Yrotation
                JOINT rPinky2
                {
                  OFFSET -1.82734 -0.647385 -0.700984
                  CHANNELS 3 Zrotation Xrotation Yrotation
                  End Site
                  {
                    OFFSET -1.69225 -0.51767 -0.607171
                  }
                }
              }
            }
          }
        }
      }
      JOINT lCollar
      {
        OFFSET 2.68224 19.2634 -4.8768
        CHANNELS 3 Zrotation Xrotation Yrotation
        JOINT lShldr
        {
          OFFSET 8.77824 -1.95073 1.46304
          CHANNELS 3 Zrotation Xrotation Yrotation
          JOINT lForeArm
          {
            OFFSET 28.1742 -1.7115 0.48768
            CHANNELS 3 Zrotation Xrotation Yrotation
            JOINT lHand
            {
              OFFSET 22.5879 0.773209 7.07136
              CHANNELS 3 Zrotation Xrotation Yrotation
              JOINT lThumb1
              {
                OFFSET 1.2192 -0.487915 3.41376
                CHANNELS 3 Zrotation Xrotation Yrotation
                JOINT lThumb2
                {
                  OFFSET 3.37035 -0.52449 3.41376
                  CHANNELS 3 Zrotation Xrotation Yrotation
                  End Site
                  {
                    OFFSET 1.78271 -1.18214 1.43049
                  }
                }
              }
              JOINT lIndex1
              {
                OFFSET 7.75947 0.938293 5.60832
                CHANNELS 3 Zrotation Xrotation Yrotation
                JOINT lIndex2
                {
                  OFFSET 2.54057 -0.884171 1.56538
                  CHANNELS 3 Zrotation Xrotation Yrotation
                  End Site
                  {
                    OFFSET 1.62519 -0.234802 1.16502
                  }
                }
              }
              JOINT lMid1
              {
                OFFSET 8.24714 1.18213 3.41376
                CHANNELS 3 Zrotation Xrotation Yrotation
                JOINT lMid2
                {
                  OFFSET 3.10165 -0.590103 1.0647
                  CHANNELS 3 Zrotation Xrotation Yrotation
                  End Site
                  {
                    OFFSET 2.48547 -0.328903 0.83742
                  }
                }
              }
              JOINT lRing1
              {
                OFFSET 8.82822 0.546677 1.51678
                CHANNELS 3 Zrotation Xrotation Yrotation
                JOINT lRing2
                {
                  OFFSET 2.60934 -0.819778 -0.0198488
                  CHANNELS 3 Zrotation Xrotation Yrotation
                  End Site
                  {
                    OFFSET 2.33842 -0.294052 0.168128
                  }
                }
              }
              JOINT lPinky1
              {
                OFFSET 8.27202 -0.0477905 -0.4584
                CHANNELS 3 Zrotation Xrotation Yrotation
                JOINT lPinky2
                {
                  OFFSET 1.82734 -0.647385 -0.700984
                  CHANNELS 3 Zrotation Xrotation Yrotation
                  End Site
                  {
                    OFFSET 1.69225 -0.51767 -0.607171
                  }
                }
              }
            }
          }
        }
      }
    }
  }
  JOINT rButtock
  {
    OFFSET -8.77824 4.35084 1.2192
    CHANNELS 3 Zrotation Xrotation Yrotation
    JOINT rThigh
    {
      OFFSET 0 -1.70687 -2.19456
      CHANNELS 3 Zrotation Xrotation Yrotation
      JOINT rShin
      {
        OFFSET 0 -36.8199 0.73152
        CHANNELS 3 Zrotation Xrotation Yrotation
        JOINT rFoot
        {
          OFFSET 0.73152 -45.1104 -5.12064
          CHANNELS 3 Zrotation Xrotation Yrotation
          End Site
          {
            OFFSET -1.1221 -3.69964 12.103
          }
        }
      }
    }
  }
  JOINT lButtock
  {
    OFFSET 8.77824 4.35084 1.2192
    CHANNELS 3 Zrotation Xrotation Yrotation
    JOINT lThigh
    {
      OFFSET 0 -1.70687 -2.19456
      CHANNELS 3 Zrotation Xrotation Yrotation
      JOINT lShin
      {
        OFFSET 0 -36.8199 0.73152
        CHANNELS 3 Zrotation Xrotation Yrotation
        JOINT lFoot
        {
          OFFSET -0.73152 -45.1104 -5.12064
          CHANNELS 3 Zrotation Xrotation Yrotation
          End Site
          {
            OFFSET 1.1221 -3.69964 12.103
          }
        }
      }
    }
  }
}
MOTION
Frames:	6
Frame Time:	0.00833333
-12.9221 81.6801 47.5758 -529.417 67.7507 -519.34 10.4264 -33.9997 -18.3307 -4.76313 8.81279 -5.20191 3.13072 2.35576 3.38775 -8.49944 -0.683959 6.47161 -0.0 0.0 0.0 -0.0 0.0 0.0 -1.15438e-13 3.55439e-13 5.38835e-14 66.0535 37.928 -1.79388 -22.3525 -16.2969 44.7535 -0.0170046 3.60657 0.507408 7.58332e-10 -2.03576e-11 6.93313e-10 1.30962e-09 -3.34205e-11 1.19656e-09 7.58333e-10 -2.03563e-11 6.933e-10 7.73091 5.47488 0.417314 7.58333e-10 -2.03577e-11 6.93317e-10 2.90554 0.965183 0.102902 7.58335e-10 -2.03584e-11 6.93318e-10 10.2786 0.731801 0.0259123 7.58327e-10 -2.03571e-11 6.93328e-10 2.22167 -0.733487 -0.20892 -1.15458e-13 3.55412e-13 5.36342e-14 9.11538 -15.076 -34.0648 21.5533 -15.1463 -42.4303 0.380748 -17.8718 2.59099 -7.28029e-10 1.36124e-09 -8.34123e-10 -1.23737e-09 2.36801e-09 -1.46245e-09 -7.28031e-10 1.36124e-09 -8.34113e-10 -7.73091 5.47488 -0.417314 -7.28028e-10 1.36124e-09 -8.3413e-10 -2.90554 0.965183 -0.102902 -7.28037e-10 1.36124e-09 -8.34121e-10 -10.2786 0.731801 -0.0259123 -7.28024e-10 1.36124e-09 -8.34122e-10 -2.22167 -0.733487 0.20892 -2.03217e-16 0.0 -3.88251e-19 -7.65196 -11.6758 -21.3036 -0.410832 44.8981 0.96318 -2.56624 15.081 12.049 2.03217e-16 0.0 3.88251e-19 -2.56802 -21.6062 -14.27 0.178613 29.7418 -0.330803 -2.30901 -21.2351 -5.91763
-13.017 82.0282 47.3339 -530.578 68.148 -520.911 10.1478 -31.855 -18.0586 -4.125 7.80593 -5.19539 3.49024 2.65451 4.0045 -9.17184 -1.59082 7.50896 -0.0 0.0 0.0 -0.0 0.0 0.0 -1.71745e-13 9.98514e-13 -7.8023e-15 64.0678 36.8029 -1.03298 -22.6998 -16.8453 45.7252 -0.00642307 2.28771 0.321689 1.1644e-09 4.40411e-11 7.5125e-10 2.01188e-09 7.75419e-11 1.29534e-09 1.1644e-09 4.40407e-11 7.51237e-10 7.73091 5.47488 0.417314 1.1644e-09 4.40387e-11 7.51257e-10 2.90554 0.965183 0.102902 1.1644e-09 4.40381e-11 7.51256e-10 10.2786 0.731801 0.0259123 1.16439e-09 4.40399e-11 7.51266e-10 2.22167 -0.733487 -0.20892 -1.71766e-13 9.98477e-13 -8.10048e-15 8.4802 -16.3024 -36.0469 20.4282 -13.56 -39.7298 0.592617 -21.3306 3.14603 -1.10303e-09 1.68972e-09 -9.75104e-10 -1.88376e-09 2.93654e-09 -1.70953e-09 -1.10303e-09 1.68972e-09 -9.75094e-10 -7.73091 5.47488 -0.417314 -1.10303e-09 1.68972e-09 -9.7511e-10 -2.90554 0.965183 -0.102902 -1.10304e-09 1.68972e-09 -9.75102e-10 -10.2786 0.731801 -0.0259123 -1.10302e-09 1.68972e-09 -9.75104e-10 -2.22167 -0.733487 0.20892 -2.03217e-16 0.0 -3.88251e-19 -10.517 -14.9878 -21.817 -0.52967 48.6839 1.08643 -2.82841 17.6574 11.1243 2.03217e-16 0.0 3.88251e-19 -2.5914 -19.9382 -12.5364 0.149284 27.2202 -0.278205 -1.87247 -20.89 -4.98453
-18.0443 81.8198 49.5686 -537.417 103.551 -529.19 10.4214 -28.415 -14.372 -2.60953 5.94966 -4.28897 3.73322 2.83 4.66861 -9.80042 -2.28358 8.68219 -0.0 0.0 0.0 -0.0 0.0 0.0 -1.49345e-13 9.28388e-13 -1.30581e-14 61.9429 36.0348 0.0919065 -23.0457 -17.4152 46.7042 0.0029417 0.753997 0.106146 1.15717e-09 3.53781e-10 3.35187e-10 2.00099e-09 6.12513e-10 5.77046e-10 1.15717e-09 3.53779e-10 3.35176e-10 7.73091 5.47488 0.417314 1.15717e-09 3.53778e-10 3.35191e-10 2.90554 0.965183 0.102902 1.15717e-09 3.53779e-10 3.3519e-10 10.2786 0.731801 0.0259123 1.15716e-09 3.5378e-10 3.35199e-10 2.22167 -0.733487 -0.20892 -1.49388e-13 9.28351e-13 -1.34141e-14 8.18374 -17.4385 -37.5833 19.4089 -12.2425 -37.455 0.775485 -24.0921 3.60325 -9.89684e-10 1.4004e-09 -6.18737e-10 -1.69741e-09 2.43214e-09 -1.08861e-09 -9.89684e-10 1.4004e-09 -6.18728e-10 -7.73091 5.47488 -0.417314 -9.89683e-10 1.4004e-09 -6.18743e-10 -2.90554 0.965183 -0.102902 -9.89688e-10 1.4004e-09 -6.18737e-10 -10.2786 0.731801 -0.0259123 -9.89676e-10 1.4004e-09 -6.18742e-10 -2.22167 -0.733487 0.20892 -2.03217e-16 0.0 -3.88251e-19 -12.5248 -21.8513 -18.1402 -0.76013 54.2856 1.29682 -2.24246 17.7635 8.48138 2.03217e-16 0.0 3.88251e-19 -2.02858 -19.3999 -7.88841 0.117177 25.595 -0.280285 -0.751944 -20.2336 -2.39213
-18.4169 81.9368 49.4595 -541.822 102.736 -532.274 10.18 -23.6871 -8.81394 -0.368028 3.43317 -2.78827 3.88966 2.92427 5.36901 -10.4044 -2.80438 9.96064 -0.0 0.0 0.0 -0.0 0.0 0.0 -8.02716e-14 4.47516e-13 1.13959e-14 59.6902 35.6036 1.48544 -23.396 -18.0127 47.7377 0.00508853 -0.947024 -0.132856 9.05828e-10 8.66802e-10 -3.74889e-10 1.56916e-09 1.49861e-09 -6.48182e-10 9.05831e-10 8.668e-10 -3.74895e-10 7.73091 5.47488 0.417314 9.05828e-10 8.66801e-10 -3.74888e-10 2.90554 0.965183 0.102902 9.05829e-10 8.66803e-10 -3.7489e-10 10.2786 0.731801 0.0259123 9.05824e-10 8.66803e-10 -3.74883e-10 2.22167 -0.733487 -0.20892 -8.03515e-14 4.47487e-13 1.09704e-14 8.06308 -18.5674 -38.9736 18.5411 -11.238 -35.4183 0.955499 -26.6091 4.03481 -5.61912e-10 7.43243e-10 1.07315e-10 -9.75529e-10 1.28843e-09 1.76826e-10 -5.61911e-10 7.43244e-10 1.07325e-10 -7.73091 5.47488 -0.417314 -5.61912e-10 7.43243e-10 1.0731e-10 -2.90554 0.965183 -0.102902 -5.61914e-10 7.43243e-10 1.07312e-10 -10.2786 0.731801 -0.0259123 -5.61903e-10 7.43245e-10 1.07304e-10 -2.22167 -0.733487 0.20892 -2.03217e-16 0.0 -3.88251e-19 -12.1215 -31.5167 -11.2311 -1.16673 61.213 1.66683 -1.26489 16.0473 4.55527 2.03217e-16 0.0 3.88251e-19 -1.02296 -19.5161 -1.27846 0.0790269 24.5728 -0.316805 0.722075 -19.2493 1.2658
-18.6112 82.1374 49.2719 -544.739 101.814 -534.347 9.01676 -18.7422 -3.70503 2.02676 0.958332 -1.29355 4.00825 2.99165 6.05282 -10.9832 -3.3101 11.2117 -0.0 0.0 0.0 -0.0 0.0 0.0 -2.84587e-15 -8.62011e-14 2.7866e-14 57.5598 35.2308 2.84497 -23.7386 -18.6187 48.7877 -0.0033857 -2.56017 -0.359874 5.67136e-10 1.20294e-09 -9.51061e-10 9.85661e-10 2.07879e-09 -1.64196e-09 5.67139e-10 1.20294e-09 -9.51064e-10 7.73091 5.47488 0.417314 5.67135e-10 1.20294e-09 -9.51064e-10 2.90554 0.965183 0.102902 5.67137e-10 1.20294e-09 -9.51066e-10 10.2786 0.731801 0.0259123 5.67134e-10 1.20294e-09 -9.51061e-10 2.22167 -0.733487 -0.20892 -2.96865e-15 -8.62227e-14 2.73849e-14 7.67382 -19.8782 -40.4592 17.7416 -10.3973 -33.4942 1.12823 -28.7465 4.41786 -5.18939e-11 3.88402e-11 8.31805e-10 -1.10951e-10 6.29398e-11 1.44058e-09 -5.18918e-11 3.88407e-11 8.31815e-10 -7.73091 5.47488 -0.417314 -5.18935e-11 3.88399e-11 8.31801e-10 -2.90554 0.965183 -0.102902 -5.18939e-11 3.88402e-11 8.318e-10 -10.2786 0.731801 -0.0259123 -5.18843e-11 3.88414e-11 8.31788e-10 -2.22167 -0.733487 0.20892 -2.03217e-16 0.0 -3.88251e-19 -8.34876 -40.9277 -2.90894 -1.72388 67.3529 2.18307 -0.562255 13.5128 0.834781 2.03217e-16 0.0 3.88251e-19 0.118999 -19.6006 5.21592 0.0418217 23.7467 -0.363553 2.0569 -18.1555 4.88648
-18.5856 82.4667 49.1587 -546.781 101.461 -536.091 7.73107 -15.0514 -0.838408 3.83893 -0.761785 -0.390106 4.13539 3.08643 6.66731 -11.528 -3.95684 12.3043 -0.0 0.0 0.0 -0.0 0.0 0.0 4.46106e-14 -3.14866e-13 -1.3418e-15 55.8202 34.6513 3.85725 -24.0647 -19.2186 49.8149 -0.0180274 -3.8303 -0.539125 2.97859e-10 9.82025e-10 -9.65413e-10 5.19763e-10 1.69599e-09 -1.66589e-09 2.97863e-10 9.82024e-10 -9.65416e-10 7.73091 5.47488 0.417314 2.97857e-10 9.82027e-10 -9.65419e-10 2.90554 0.965183 0.102902 2.97859e-10 9.82031e-10 -9.65421e-10 10.2786 0.731801 0.0259123 2.97857e-10 9.8203e-10 -9.65416e-10 2.22167 -0.733487 -0.20892 4.4448e-14 -3.14884e-13 -1.83876e-15 6.52354 -21.5194 -42.3113 16.8901 -9.54115 -31.5751 1.28283 -30.37 4.72399 3.08193e-10 -3.92229e-10 1.18348e-09 5.03492e-10 -6.86825e-10 2.05642e-09 3.08195e-10 -3.92229e-10 1.18349e-09 -7.73091 5.47488 -0.417314 3.08193e-10 -3.9223e-10 1.18348e-09 -2.90554 0.965183 -0.102902 3.08193e-10 -3.92229e-10 1.18348e-09 -10.2786 0.731801 -0.0259123 3.08202e-10 -3.92228e-10 1.18347e-09 -2.22167 -0.733487 0.20892 -2.03217e-16 0.0 -3.88251e-19 -3.68104 -47.1573 3.54205 -2.14934 70.5942 2.57964 -0.322126 11.2958 -1.34081 2.03217e-16 0.0 3.88251e-19 0.8491 -19.2349 9.43485 0.0135523 22.7097 -0.396911 2.89943 -17.2475 7.414
